<?xml version="1.0" encoding="UTF-8"?>
<svg
   xmlns:svg="http://www.w3.org/2000/svg"
   xmlns="http://www.w3.org/2000/svg"
   width="16"
   height="16"
   viewBox="0 0 16 16"
   version="1.1"
   id="svg_tile_4">
  <path
     style="fill:black;fill-opacity:1;stroke:none"
     d="M 0,0 H 16 V 16 H 0 Z"
     id="tile_bg" />
  <path
     style="fill:white;fill-opacity:1;stroke:none"
     d="M 0 0 L 0 3 C 3 3 4.7402344 7.5605469 5.7402344 7.5605469 C 5.7402344 6.5605469 3 3 3 0 L 0 0 z M 13 0 C 13 3 11.904297 4.3632812 11.904297 5.3632812 C 12.512996 5.3632813 14.263843 9.3442737 15.009766 8.1816406 C 15.489282 7.4342424 14.826095 3 16 3 L 16 0 L 13 0 z M 7.8652344 1.8613281 C 7.8652344 2.4053125 7.9754852 8.0537447 9.1601562 10.669922 C 10.153252 12.863032 13 14.631953 13 16 L 16 16 L 16 13 C 13 13 8.8652344 1.8613281 7.8652344 1.8613281 z M 1.7734375 7.6679688 C 0.77343747 7.6679688 3 13 0 13 L 0 16 L 3 16 C 3 14.891005 5.6391411 13.190798 5.7988281 12.195312 C 6.0711187 10.497859 1.7734375 8.2983037 1.7734375 7.6679688 z"
     id="stripe0"/>
</svg>
