<?xml version="1.0" encoding="UTF-8"?>
<svg
   xmlns:svg="http://www.w3.org/2000/svg"
   xmlns="http://www.w3.org/2000/svg"
   width="16"
   height="16"
   viewBox="0 0 16 16"
   version="1.1"
   id="svg_tile_A">
  <path
     style="fill:black;fill-opacity:1;stroke:none"
     d="M 0,0 H 16 V 16 H 0 Z"
     id="tile_bg" />
  <path
     style="fill:white;fill-opacity:1;stroke:none"
     d="M 0,0 V 3 C 2.4036047,3 2.958322,3.4138733 2.9783483,4.5618791 2.9983746,5.7098849 1.7393011,13 0,13 v 3 H 3 C 3,14.380897 9.2127943,14.090184 10.317216,14.093786 11.421638,14.097388 13,13.669476 13,16 h 3 V 13 C 14.366774,13 14.697094,10.916129 14.576916,9.7350132 14.344644,7.452227 14.467898,3 16,3 V 0 H 13 C 13,2.5613532 10.508536,1.8178525 9.3020514,2.4363853 4.5910868,0.54330104 3,1.686658 3,0 Z M 8.7656378,9.5530809 C 9.2646394,9.6254401 10.138731,4.0337295 11.251511,4.5143303 11.6029,5.2734533 12.737792,11.946663 12,12 12,12.11946 8.2392335,12.284532 8.2643645,12.38227 6.7263785,12.208201 5.9152671,12.229275 6.1383555,11.099266 6.3614439,9.9692573 5.2151619,10.618298 5.0742014,9.0566854 c 0,0 0.4860117,-4.1714735 0.5867888,-4.1714735 1.7954202,-2.576891 0.5967886,5.4401781 3.1046476,4.667869 z"
     id="stripe0"/>
</svg>
