<?xml version="1.0" encoding="UTF-8"?>
<svg
   xmlns:svg="http://www.w3.org/2000/svg"
   xmlns="http://www.w3.org/2000/svg"
   width="16"
   height="16"
   viewBox="0 0 16 16"
   version="1.1"
   id="svg_tile_0">
  <path
     style="fill:black;fill-opacity:1;stroke:none"
     d="M 0,0 H 16 V 16 H 0 Z"
     id="tile_bg" />
  <path
     style="fill:white;fill-opacity:1;stroke:none"
     d="M 0 0 L 0 3 C 2.2294692 3 3.032179 4.2632438 4.5527344 5.7148438 C 6.0732897 7.1664436 5.0930952 10.415704 6.7988281 12.589844 C 8.3789221 14.603844 13 14.983773 13 16 L 16 16 L 16 13 C 14.995369 13 13.269488 12.279978 11.976562 10.328125 C 10.406883 7.9584711 9.2570202 4.1977585 8.0332031 3.1191406 C 6.2605897 1.1002351 3 2.1035995 3 0 L 0 0 z M 13 0 C 13 1.7735159 11.149662 2.0138751 10.673828 3.1152344 C 10.344762 3.8768851 10.878174 5.8124401 11.333984 6.09375 C 11.789794 6.3750599 13.609311 10.31697 14.753906 9.4003906 C 15.337186 8.9333065 14.987288 3 16 3 L 16 0 L 13 0 z M 0.89648438 6.9941406 C -0.10351562 6.9941406 3 13 0 13 L 0 16 L 3 16 C 3 13 0.89648438 7.9941406 0.89648438 6.9941406 z"
     id="stripe0"/>
</svg>
