<?xml version="1.0" encoding="UTF-8"?>
<svg
   xmlns:svg="http://www.w3.org/2000/svg"
   xmlns="http://www.w3.org/2000/svg"
   width="16"
   height="16"
   viewBox="0 0 16 16"
   version="1.1"
   id="svg_tile_2">
  <path
     style="fill:black;fill-opacity:1;stroke:none"
     d="M 0,0 H 16 V 16 H 0 Z"
     id="tile_bg" />
  <path
     style="fill:white;fill-opacity:1;stroke:none"
     d="M 13 0 C 13 3 10.626953 1.3671875 10.626953 2.3671875 C 10.942008 3.1183608 14.521586 8.475633 15.146484 8.2011719 C 15.645787 7.9818736 14.66758 3 16 3 L 16 0 L 13 0 z M 0.017578125 0.017578125 L 0.017578125 3.0175781 C 2.7107599 3.0175781 1.4870967 5.0967154 1.6015625 6.3085938 C 1.811753 8.5339324 2.7041931 12.787109 -0.125 12.787109 L 0 16 L 3 16 C 3 13.155134 4.5106015 13.399472 4.6308594 12.228516 C 4.6749064 12.252456 4.1802965 7.77809 3.7539062 5.6699219 C 3.7539062 4.6699219 3.0175781 3.0175781 3.0175781 0.017578125 L 0.017578125 0.017578125 z M 6.3886719 0.89648438 C 6.3886719 1.3858575 6.4613237 7.3636726 8.078125 10.558594 C 9.7651453 13.892273 13 14.468119 13 16 L 16 16 L 16 13 C 13 13 7.3886719 0.89648438 6.3886719 0.89648438 z"
     id="stripe0"/>
</svg>
