<?xml version="1.0" encoding="UTF-8"?>
<svg
   xmlns:svg="http://www.w3.org/2000/svg"
   xmlns="http://www.w3.org/2000/svg"
   width="16"
   height="16"
   viewBox="0 0 16 16"
   version="1.1"
   id="svg_tile_D">
  <path
     style="fill:black;fill-opacity:1;stroke:none"
     d="M 0,0 H 16 V 16 H 0 Z"
     id="tile_bg" />
  <path
     style="fill:white;fill-opacity:1;stroke:none"
     d="M 0 0 L 0 3 C 3 3 3.4196087 12.951853 5.4726562 8.5410156 C 8.2041261 4.6410329 9.5337794 0.29311497 7.0957031 1.2832031 C 5.6400415 1.8743385 3 1.2475705 3 0 L 0 0 z M 13 0 C 13 3 10.664063 4.5976562 10.664062 5.5976562 C 11.233672 5.5976563 12.463092 5.985092 13.496094 5.2597656 C 14.276621 4.7117162 14.708827 3 16 3 L 16 0 L 13 0 z M 11.960938 7.5527344 C 11.200103 7.5858941 10.478316 8.1851052 10.054688 9.6425781 C 8.4642066 15.114555 13 13 13 16 L 16 16 L 16 13 C 14.704654 13 15.151673 10.635107 14.318359 9.2050781 C 13.735776 8.2053218 12.823217 7.5151534 11.960938 7.5527344 z M 2.5175781 11.375 C 1.5175781 11.375 3 13 0 13 L 0 16 L 3 16 C 3 14.489175 7.2052402 14.708984 7.4570312 14.208984 C 7.7052141 13.716149 2.5175781 11.871391 2.5175781 11.375 z"
     id="stripe0"/>
</svg>
