<?xml version="1.0" encoding="UTF-8"?>
<svg
   xmlns:svg="http://www.w3.org/2000/svg"
   xmlns="http://www.w3.org/2000/svg"
   width="16"
   height="16"
   viewBox="0 0 16 16"
   version="1.1"
   id="svg_tile_6">
  <path
     style="fill:black;fill-opacity:1;stroke:none"
     d="M 0,0 H 16 V 16 H 0 Z"
     id="tile_bg" />
  <path
     style="fill:white;fill-opacity:1;stroke:none"
     d="M 0 0 L 0 3 C 3 3 3 4 4 4 C 4 3.4727458 9.4444844 1.2626388 9.1816406 0.70507812 C 8.94597 0.20515911 3 1.4182373 3 0 L 0 0 z M 13 0 C 13 3 8.8320312 4.2089844 8.8320312 5.2089844 C 8.8907132 5.2089844 11.963114 10.819949 12.011719 10.785156 C 12.05711 12.315356 13 13.385483 13 16 L 16 16 L 16 13 C 13.303541 13 15.700542 8.0654975 15.072266 7.2109375 C 15.561066 5.9287047 13.527705 3 16 3 L 16 0 L 13 0 z M 5.0214844 6.5371094 L 5.1308594 7.1074219 C 6.1178767 9.9770246 7.1054316 12.022972 5.8066406 14.517578 C 6.04015 15.423772 7.7432844 15.355938 9.8007812 15.052734 C 8.2485809 9.7339432 7.0690792 8.3691456 5.0214844 6.5371094 z M 1.3105469 7.5234375 C 0.6722092 7.6169775 2.484375 13 0 13 L 0 16 L 3 16 C 3 13 4.4342258 11.338019 2.0839844 8.2441406 C 1.6800366 7.7123804 1.4430321 7.5040235 1.3105469 7.5234375 z"
     id="stripe0"/>
</svg>
