<?xml version="1.0" encoding="UTF-8"?>
<svg
   xmlns:svg="http://www.w3.org/2000/svg"
   xmlns="http://www.w3.org/2000/svg"
   width="64"
   height="64"
   viewBox="0 0 64 64"
   version="1.1"
   id="svg_tile_D">
  <rect
    style="fill:black;fill-opacity:1;stroke:none"
    x="0" y="0" width="64" height="64"
    id="tile_bg" />
  <path
    style="fill:none;stroke:white;stroke-width:5"
    d="M 48 64 L 48 54 M 48 42 L 48 32 C 48 32 48 16 64 16"
    id="path_0" />
  <path
    style="fill:none;stroke:white;stroke-width:5"
    d="M 16 64 L 16 54 M 16 42 L 16 32 C 16 32 16 16 0 16"
    id="path_1" />
  <path
    style="fill:none;stroke:white;stroke-width:5"
    d="M 16 0 C 16 0 32 32 48 0"
    id="path_2" />
  <path
    style="fill:none;stroke:white;stroke-width:5"
    d="M 0 48 L 64 48"
    id="path_3" />
  <circle
    style="fill:white;stroke:white;stroke-width:5"
    cx="0" cy="48" r="2"
    id="node_lb" />
  <circle
    style="fill:white;stroke:white;stroke-width:5"
    cx="0" cy="16" r="2"
    id="node_lt" />
  <circle
    style="fill:white;stroke:white;stroke-width:5"
    cx="64" cy="16" r="2"
    id="node_rt" />
  <circle
    style="fill:white;stroke:white;stroke-width:5"
    cx="64" cy="48" r="2"
    id="node_rb" />
  <circle
    style="fill:white;stroke:white;stroke-width:5"
    cx="16" cy="0" r="2"
    id="node_tl" />
  <circle
    style="fill:white;stroke:white;stroke-width:5"
    cx="48" cy="0" r="2"
    id="node_tr" />
  <circle
    style="fill:white;stroke:white;stroke-width:5"
    cx="16" cy="64" r="2"
    id="node_tl" />
  <circle
    style="fill:white;stroke:white;stroke-width:5"
    cx="48" cy="64" r="2"
    id="node_tr" />
</svg>
