<?xml version="1.0" encoding="UTF-8"?>
<svg
   xmlns:svg="http://www.w3.org/2000/svg"
   xmlns="http://www.w3.org/2000/svg"
   width="64"
   height="64"
   viewBox="0 0 64 64"
   version="1.1"
   id="svg_tile_8">
  <rect
    style="fill:black;fill-opacity:1;stroke:none"
    x="0" y="0" width="64" height="64"
    id="tile_bg" />
  <path
    style="fill:none;stroke:white;stroke-width:5"
    d="M 16 0 L 16 10 M 16 22 16 64"
    id="path_0" />
  <path
    style="fill:none;stroke:white;stroke-width:5"
    d="M 48 0 L 48 42 M 48 54 48 64"
    id="path_1" />
  <path
    style="fill:none;stroke:white;stroke-width:5"
    d="M 0 16 L 20 16 C 20 16 24 16 28 24 M 36 38 C 38 40 42 48 46 48 L 64 48"
    id="path_2" />
  <path
    style="fill:none;stroke:white;stroke-width:5"
    d="M 0 48 L 10 48 M 22 48 C 22 48 27 48 30 40 L 34 24 C 34 24 37 16 42 16 M 54 16 L 64 16"
    id="path_3" />
  <circle
    style="fill:white;stroke:white;stroke-width:5"
    cx="0" cy="48" r="2"
    id="node_lb" />
  <circle
    style="fill:white;stroke:white;stroke-width:5"
    cx="0" cy="16" r="2"
    id="node_lt" />
  <circle
    style="fill:white;stroke:white;stroke-width:5"
    cx="64" cy="16" r="2"
    id="node_rt" />
  <circle
    style="fill:white;stroke:white;stroke-width:5"
    cx="64" cy="48" r="2"
    id="node_rb" />
  <circle
    style="fill:white;stroke:white;stroke-width:5"
    cx="16" cy="0" r="2"
    id="node_tl" />
  <circle
    style="fill:white;stroke:white;stroke-width:5"
    cx="48" cy="0" r="2"
    id="node_tr" />
  <circle
    style="fill:white;stroke:white;stroke-width:5"
    cx="16" cy="64" r="2"
    id="node_tl" />
  <circle
    style="fill:white;stroke:white;stroke-width:5"
    cx="48" cy="64" r="2"
    id="node_tr" />
</svg>
