<?xml version="1.0" encoding="UTF-8"?>
<svg
   xmlns:svg="http://www.w3.org/2000/svg"
   xmlns="http://www.w3.org/2000/svg"
   width="16"
   height="16"
   viewBox="0 0 16 16"
   version="1.1"
   id="svg_tile_B">
  <path
     style="fill:black;fill-opacity:1;stroke:none"
     d="M 0,0 H 16 V 16 H 0 Z"
     id="tile_bg" />
  <path
     style="fill:white;fill-opacity:1;stroke:none"
     d="M 0 0 L 0 3 C 5.3381399 3.0619825 0.85355412 7.8725438 1.4628906 8.9179688 C 0.85667163 10.486717 2.464807 13 0 13 L 0 16 L 3 16 C 3 13.521495 7.630556 14.108687 6.8476562 11.859375 C 6.8683862 11.863475 4.8793822 9.9849551 5.1621094 7.9492188 C 5.4448367 5.9134823 8.6094141 3.8041141 8.5761719 3.8203125 C 8.3494408 2.3407747 3 2.3926528 3 0 L 0 0 z M 13 0 C 13 2.4543044 12.608408 3.0235716 12.611328 5.203125 C 11.24464 6.2288541 9.7185182 8.6086483 9.8007812 10.558594 C 9.8805143 12.448542 13 14.805277 13 16 L 16 16 L 16 13 C 14.811579 13 13.444232 11.528721 13.324219 10.099609 C 13.194831 8.5588592 15.247713 7.1042406 15.019531 6.4628906 C 15.456722 5.0741659 13.536477 3 16 3 L 16 0 L 13 0 z"
     id="stripe0"/>
</svg>
