<?xml version="1.0" encoding="UTF-8"?>
<svg
   xmlns:svg="http://www.w3.org/2000/svg"
   xmlns="http://www.w3.org/2000/svg"
   width="16"
   height="16"
   viewBox="0 0 16 16"
   version="1.1"
   id="svg_tile_C">
  <path
     style="fill:black;fill-opacity:1;stroke:none"
     d="M 0,0 H 16 V 16 H 0 Z"
     id="tile_bg" />
  <path
     style="fill:white;fill-opacity:1;stroke:none"
     d="M 0 0 L 0 3 C 3 3 2.140625 4.9453125 3.140625 4.9453125 C 2.519074 6.2502804 9.284868 3.5068502 12.412109 3.1425781 C 13.601052 3.0040858 13.470729 3 16 3 L 16 0 L 13 0 C 13 2.5362253 8.2051064 0.91044544 6.4648438 2.375 C 4.724581 3.8395546 3 2.4130411 3 0 L 0 0 z M 14.132812 4.2773438 C 14.132812 4.2773438 9.9168903 5.6344555 8.1015625 6.8476562 C 6.4086631 7.979037 2.3691406 7.4609375 2.3691406 7.4609375 C 0.48136879 8.4067547 1.11057 10.858918 2.1386719 11.083984 C 2.4991589 11.1629 3.6985366 10.101301 5.4160156 9.5058594 C 8.5967539 8.4031111 12.970703 7.3730469 12.970703 7.3730469 C 14.910103 5.8782313 14.846736 5.1403281 14.132812 4.2773438 z M 12.373047 9.5 C 9.0073875 9.5490003 7.1673169 11.928611 4.7714844 12.609375 C 2.2159296 13.335524 3 13 0 13 L 0 16 L 3 16 C 3 14.915378 4.798536 15.357705 6.1875 14.828125 C 7.911596 14.170767 9.4350446 12.676362 11.171875 12.679688 C 12.435305 12.682106 13 13.28518 13 16 L 16 16 L 16 13 C 13.329259 13 14.644799 9.6762155 13.066406 9.5234375 C 12.827845 9.5047934 12.597424 9.4967333 12.373047 9.5 z"
     id="stripe0"/>
</svg>
