<?xml version="1.0" encoding="UTF-8"?>
<svg
   xmlns:svg="http://www.w3.org/2000/svg"
   xmlns="http://www.w3.org/2000/svg"
   width="16"
   height="16"
   viewBox="0 0 16 16"
   version="1.1"
   id="svg_tile_8">
  <path
     style="fill:black;fill-opacity:1;stroke:none"
     d="M 0,0 H 16 V 16 H 0 Z"
     id="tile_bg" />
  <path
     style="fill:white;fill-opacity:1;stroke:none"
     d="M 0 0 L 0 3 C 2.6342452 3 0.9938815 7.238586 1.5800781 8.3808594 C 1.1117386 9.5863265 2.3911848 13 0 13 L 0 16 L 3 16 C 3 13 3.7050781 11.310547 3.7050781 10.310547 C 3.6384451 10.310547 4.0369702 3.6975812 3.9824219 3.7363281 C 3.9170572 1.9820083 3 2.5656057 3 0 L 0 0 z M 13 0 C 13 1.3519087 9.2052184 0.34915111 7.7910156 3.1933594 C 6.0669815 6.6606904 6.6621094 13.958448 6.6621094 14.507812 C 7.0380154 13.670059 10.933629 0.34208315 16 3 L 16 0 L 13 0 z M 12.841797 6.8027344 C 12.841797 7.3882386 11.384991 9.3182642 11.429688 11.498047 C 11.461329 13.04118 13 14.756513 13 16 L 16 16 L 16 13 C 13 13 13.841797 6.8027344 12.841797 6.8027344 z"
     id="stripe0"/>
</svg>
