<?xml version="1.0" encoding="UTF-8"?>
<svg
   xmlns:svg="http://www.w3.org/2000/svg"
   xmlns="http://www.w3.org/2000/svg"
   width="16"
   height="16"
   viewBox="0 0 16 16"
   version="1.1"
   id="svg_tile_1">
  <path
     style="fill:black;fill-opacity:1;stroke:none"
     d="M 0,0 H 16 V 16 H 0 Z"
     id="tile_bg" />
  <path
     style="fill:white;fill-opacity:1;stroke:none"
     d="M 2.9785156,-1.0683594 0,0 V 3 C 2.5671725,3 6.2879993,6.7314178 7.9355469,7.8085938 9.149643,9.5731992 13,13.472994 13,16 h 3 V 13 C 13.749093,13 14.168121,10.798229 13.742188,8.8808594 13.316254,6.9634898 13.256823,3 16,3 V 0 H 13 C 13,2.7551185 9.9739814,3.6447853 9.3652344,5.0019531 9.1940064,4.849094 7.6037248,3.9038308 6.4160156,3.1425781 c -1.1877092,-0.7612527 -3.4375,-1.694681 -3.4375,-4.2109375 z m 5.2910156,1.53125002 c -0.605452,-0.001886 -1.219681,0.0405 -1.8476562,0.1640625 L 6.0527344,1.3203125 8.973695,2.8539692 c 0,0 1.526078,-1.2402326 1.606383,-2.24264108 C 9.8139417,0.54038381 9.0479698,0.4653159 8.2695312,0.46289062 Z M 2.8847656,7.2871094 c -0.055021,0.00257 -0.1104815,0.00901 -0.1640625,0.019531 C 1.3981387,7.5662703 1.3063849,13 0,13 v 3 H 3 C 3,14.500608 6.4215724,15.12931 7.6328125,14.576172 8.8450357,14.022585 7.7304935,11.526881 7.3320312,11.173828 6.946021,10.831808 4.5904286,7.2073548 2.8847656,7.2871094 Z"
     id="stripe0"/>
</svg>
