<?xml version="1.0" encoding="UTF-8"?>
<svg
   xmlns:svg="http://www.w3.org/2000/svg"
   xmlns="http://www.w3.org/2000/svg"
   width="16"
   height="16"
   viewBox="0 0 16 16"
   version="1.1"
   id="svg_tile_E">
  <path
     style="fill:black;fill-opacity:1;stroke:none"
     d="M 0,0 H 16 V 16 H 0 Z"
     id="tile_bg" />
  <path
     style="fill:white;fill-opacity:1;stroke:none"
     d="M 0 0 L 0 3 C 2.5144612 3 2.6437791 8.8889809 3.5449219 10.179688 C 2.6498101 11.094931 2.639819 13 0 13 L 0 16 L 3 16 C 3 13.378276 5.2093521 13.495845 5.5839844 12.03125 C 5.6042654 12.04669 8.8515729 14.06058 9.0429688 13.792969 C 10.710278 14.644543 13 13.464534 13 16 L 16 16 L 16 13 C 13.418035 13 9.3671909 11.948638 8.5410156 9.5351562 C 9.4898105 6.8940043 7.6412798 7.4292124 5.8886719 6.2050781 C 4.1360641 4.9809438 3 3 3 0 L 0 0 z M 13 0 C 13 1.5863378 6.461447 1.9643549 6.1582031 2.4414062 C 4.8129792 4.5576592 9.4801216 4.1793195 10.837891 5.4394531 C 12.165461 6.6715594 11.744801 11.121892 14.101562 9.7832031 C 14.537079 9.5358214 15.01654 3 16 3 L 16 0 L 13 0 z"
     id="stripe0"/>
</svg>
