<?xml version="1.0" encoding="UTF-8"?>
<svg
   xmlns:svg="http://www.w3.org/2000/svg"
   xmlns="http://www.w3.org/2000/svg"
   width="16"
   height="16"
   viewBox="0 0 16 16"
   version="1.1"
   id="svg_tile_9">
  <path
     style="fill:black;fill-opacity:1;stroke:none"
     d="M 0,0 H 16 V 16 H 0 Z"
     id="tile_bg" />
  <path
     style="fill:white;fill-opacity:1;stroke:none"
     d="M 0 0 L 0 3 C 1.4838584 3 0.61233064 5.0966793 3.7910156 6.6640625 C 7.038857 8.2655461 14.326651 9.3378906 14.832031 9.3378906 C 14.832031 9.0391647 15.176268 7.160666 13.695312 6.265625 C 11.714232 5.0683254 7.3363069 5.4481794 4.953125 4.2617188 C 3.154036 3.3660472 3 0.90500196 3 0 L 0 0 z M 13 0 C 13 3 7.5026846 3.6181673 12 4 C 14.962726 4.2515424 13 3 16 3 L 16 0 L 13 0 z M 2.0742188 8.9570312 C -0.16363108 8.9174787 2.53125 13 0 13 L 0 16 L 3 16 C 3 13 9.1208844 11.645248 3.890625 9.4550781 C 3.073397 9.112864 2.4886354 8.9643558 2.0742188 8.9570312 z M 10.869141 10.285156 C 10.41125 10.3013 9.9682194 10.629197 9.5175781 11.476562 C 7.7150133 14.866022 13 13 13 16 L 16 16 L 16 13 C 13.75 13 12.242811 10.236725 10.869141 10.285156 z"
     id="stripe0"/>
</svg>
