<?xml version="1.0" encoding="UTF-8"?>
<svg
   xmlns:svg="http://www.w3.org/2000/svg"
   xmlns="http://www.w3.org/2000/svg"
   width="16"
   height="16"
   viewBox="0 0 16 16"
   version="1.1"
   id="svg_tile_3">
  <path
     style="fill:black;fill-opacity:1;stroke:none"
     d="M 0,0 H 16 V 16 H 0 Z"
     id="tile_bg" />
  <path
     style="fill:white;fill-opacity:1;stroke:none"
     d="M 0 0 L 0 3 C 3 3 14.224609 10.560547 15.224609 10.560547 C 15.224609 10.101463 15.164258 8.6234733 12.376953 6.703125 C 13.722658 5.7228899 13.57304 3 16 3 L 16 0 L 13 0 C 13 2.4775968 10.077349 3.0779872 9.1484375 4.4101562 C 5.9972058 2.2190848 3 1.5482501 3 0 L 0 0 z M 1.2011719 6.2246094 C 1.1314373 6.2254805 1.0626694 6.2269382 0.9921875 6.2304688 L 1.3476562 10.296875 C 3.2351924 10.907626 4.9658468 9.321194 6.6015625 8.6914062 C 5.1666624 7.4287819 3.3629447 6.1976044 1.2011719 6.2246094 z M 7.5859375 10.833984 C 4.9567298 10.871574 3 13 0 13 L 0 16 L 3 16 C 3 13.457084 8.8817144 14.199334 10.099609 13.513672 C 10.780738 14.290227 13 13.248789 13 16 L 16 16 L 16 13 C 13.282605 13 14.781585 12.459778 13.414062 12.320312 C 13.467553 12.256433 9.5908224 10.805319 7.5859375 10.833984 z "
     id="stripe0"/>
</svg>
