<?xml version="1.0" encoding="UTF-8"?>
<svg
   xmlns:svg="http://www.w3.org/2000/svg"
   xmlns="http://www.w3.org/2000/svg"
   width="16"
   height="16"
   viewBox="0 0 16 16"
   version="1.1"
   id="svg_tile_7">
  <path
     style="fill:black;fill-opacity:1;stroke:none"
     d="M 0,0 H 16 V 16 H 0 Z"
     id="tile_bg" />
  <path
     style="fill:white;fill-opacity:1;stroke:none"
     d="M 0,0 V 3 C 1.1095748,3 2.9908852,4.2864466 4.5996094,6.1347656 5.0582607,6.6617261 2.7570853,7.2790792 3.185716,7.8460022 1.936798,9.1772118 2.4853072,13 0,13 v 3 h 3 c 0,-2.451322 3.5332089,-3.253384 4.407147,-5.017275 1.5465549,2.094911 1.5511639,2.530148 2.1628528,2.899641 C 10.778822,15.568913 13,13.414646 13,16 h 3 V 13 C 13.827348,13.32769 14.192568,11.534102 13.032171,9.4224584 14.045812,7.5554578 13.61841,3 16,3 V 0 H 13 C 13,2.300479 10.974823,3.9093986 10.265625,6.1816406 9.2068339,4.0766772 9.0057493,4.4346029 8.4492188,3.8828125 7.4458302,2.382079 3,2.5794128 3,0 Z"
     id="stripe0"/>
</svg>
