<?xml version="1.0" encoding="UTF-8"?>
<svg
   xmlns:svg="http://www.w3.org/2000/svg"
   xmlns="http://www.w3.org/2000/svg"
   width="16"
   height="16"
   viewBox="0 0 16 16"
   version="1.1"
   id="svg_tile_5">
  <path
     style="fill:black;fill-opacity:1;stroke:none"
     d="M 0,0 H 16 V 16 H 0 Z"
     id="tile_bg" />
  <path
     style="fill:white;fill-opacity:1;stroke:none"
     d="M 0 0 L 0 3 C 0.97430163 3 0.33739916 6.984744 0.8203125 7.1113281 C 3.3939874 7.785955 9.2914519 2.2873153 7.7578125 1.7578125 C 7.7578125 0.75781254 3 3 3 0 L 0 0 z M 13 0 C 13 1.1101336 11.624736 3.9616831 9.6523438 5.6523438 C 6.9419662 7.9755766 3.3402406 9.1500896 2.7851562 10.09375 C 1.2043085 11.003039 2.6360355 13 0 13 L 0 16 L 3 16 C 3 13.363989 12.032953 8.1989422 13.083984 6.7597656 C 14.572593 5.6586541 13.364468 3 16 3 L 16 0 L 13 0 z M 14.097656 9.4960938 C 14.097656 9.9686294 7.6804606 13.581292 7.9160156 14.029297 C 8.178952 14.52938 13 14.417607 13 16 L 16 16 L 16 13 C 13 13 15.097656 9.4960937 14.097656 9.4960938 z"
     id="stripe0"/>
</svg>
