<?xml version="1.0" encoding="UTF-8"?>
<svg
   xmlns:svg="http://www.w3.org/2000/svg"
   xmlns="http://www.w3.org/2000/svg"
   width="16"
   height="16"
   viewBox="0 0 16 16"
   version="1.1"
   id="svg_tile_F">
  <path
     style="fill:black;fill-opacity:1;stroke:none"
     d="M 0,0 H 16 V 16 H 0 Z"
     id="tile_bg" />
  <path
     style="fill:white;fill-opacity:1;stroke:none"
     d="m 0,0 v 3 c 3,0 1.1308594,5.9140625 2.1308594,5.9140625 0,-0.5919368 2.4821852,-3.4768201 2.5917968,-5.1796875 C 4.7982191,2.5604699 3,1.2241897 3,0 Z M 13,0 C 12.955001,1.4020931 10.926744,1.1256257 9.8515625,2.7363281 8.9353377,3.4433653 6.0111684,9.1794354 4.1855469,11.458984 2.177455,13.966373 1.2494364,13 0,13 v 3 H 3 C 4.5223167,14.437454 6.4852634,14.767238 8.4667969,11.59375 9.3213859,13.005398 12.868201,14.492271 13,16 h 3 V 13 C 13.465541,13 11.992165,8.8967221 10.802734,7.9765625 11.159818,7.0031515 11.44446,5.9227299 12.234375,5.0390625 13.480585,3.6449436 13.663416,3 16,3 V 0 Z"
     id="stripe0"/>
</svg>
